<?xml version="1.0" encoding="UTF-8" standalone="no"?>
<!DOCTYPE svg PUBLIC "-//W3C//DTD SVG 1.1//EN"
 "http://www.w3.org/Graphics/SVG/1.1/DTD/svg11.dtd">
<!-- Generated by graphviz version 12.2.1 (20241206.2353)
 -->
<!-- Title: G Pages: 1 -->
<svg width="817pt" height="739pt"
 viewBox="0.00 0.00 817.20 738.95" xmlns="http://www.w3.org/2000/svg" xmlns:xlink="http://www.w3.org/1999/xlink">
<g id="graph0" class="graph" transform="scale(1 1) rotate(0) translate(21.6 717.35)">
<title>G</title>
<polygon fill="#111111" stroke="none" points="-21.6,21.6 -21.6,-717.35 795.6,-717.35 795.6,21.6 -21.6,21.6"/>
<!-- app/about/page.tsx -->
<g id="node1" class="node">
<title>app/about/page.tsx</title>
<path fill="none" stroke="#cfffac" d="M177.58,-23.75C177.58,-23.75 62.67,-23.75 62.67,-23.75 58.71,-23.75 54.75,-19.79 54.75,-15.83 54.75,-15.83 54.75,-7.92 54.75,-7.92 54.75,-3.96 58.71,0 62.67,0 62.67,0 177.58,0 177.58,0 181.54,0 185.5,-3.96 185.5,-7.92 185.5,-7.92 185.5,-15.83 185.5,-15.83 185.5,-19.79 181.54,-23.75 177.58,-23.75"/>
<text text-anchor="middle" x="120.12" y="-6.45" font-family="Arial" font-size="14.00" fill="#cfffac">app/about/page.tsx</text>
</g>
<!-- app/api/auth/register/route.js -->
<g id="node2" class="node">
<title>app/api/auth/register/route.js</title>
<path fill="none" stroke="#c6c5fe" d="M205.71,-65.75C205.71,-65.75 34.54,-65.75 34.54,-65.75 30.58,-65.75 26.62,-61.79 26.62,-57.83 26.62,-57.83 26.62,-49.92 26.62,-49.92 26.62,-45.96 30.58,-42 34.54,-42 34.54,-42 205.71,-42 205.71,-42 209.67,-42 213.62,-45.96 213.62,-49.92 213.62,-49.92 213.62,-57.83 213.62,-57.83 213.62,-61.79 209.67,-65.75 205.71,-65.75"/>
<text text-anchor="middle" x="120.12" y="-48.45" font-family="Arial" font-size="14.00" fill="#c6c5fe">app/api/auth/register/route.js</text>
</g>
<!-- lib/mongodb.js -->
<g id="node3" class="node">
<title>lib/mongodb.js</title>
<path fill="none" stroke="#cfffac" d="M422.71,-86.75C422.71,-86.75 334.79,-86.75 334.79,-86.75 330.83,-86.75 326.88,-82.79 326.88,-78.83 326.88,-78.83 326.88,-70.92 326.88,-70.92 326.88,-66.96 330.83,-63 334.79,-63 334.79,-63 422.71,-63 422.71,-63 426.67,-63 430.62,-66.96 430.62,-70.92 430.62,-70.92 430.62,-78.83 430.62,-78.83 430.62,-82.79 426.67,-86.75 422.71,-86.75"/>
<text text-anchor="middle" x="378.75" y="-69.45" font-family="Arial" font-size="14.00" fill="#cfffac">lib/mongodb.js</text>
</g>
<!-- app/api/auth/register/route.js&#45;&gt;lib/mongodb.js -->
<g id="edge1" class="edge">
<title>app/api/auth/register/route.js&#45;&gt;lib/mongodb.js</title>
<path fill="none" stroke="#757575" d="M213.77,-61.46C247.51,-64.22 284.82,-67.27 315.31,-69.77"/>
<polygon fill="#757575" stroke="#757575" points="314.89,-73.24 325.14,-70.57 315.46,-66.27 314.89,-73.24"/>
</g>
<!-- models/User.js -->
<g id="node4" class="node">
<title>models/User.js</title>
<path fill="none" stroke="#cfffac" d="M423.46,-44.75C423.46,-44.75 334.04,-44.75 334.04,-44.75 330.08,-44.75 326.12,-40.79 326.12,-36.83 326.12,-36.83 326.12,-28.92 326.12,-28.92 326.12,-24.96 330.08,-21 334.04,-21 334.04,-21 423.46,-21 423.46,-21 427.42,-21 431.38,-24.96 431.38,-28.92 431.38,-28.92 431.38,-36.83 431.38,-36.83 431.38,-40.79 427.42,-44.75 423.46,-44.75"/>
<text text-anchor="middle" x="378.75" y="-27.45" font-family="Arial" font-size="14.00" fill="#cfffac">models/User.js</text>
</g>
<!-- app/api/auth/register/route.js&#45;&gt;models/User.js -->
<g id="edge2" class="edge">
<title>app/api/auth/register/route.js&#45;&gt;models/User.js</title>
<path fill="none" stroke="#757575" d="M213.77,-46.29C247.25,-43.55 284.25,-40.53 314.62,-38.04"/>
<polygon fill="#757575" stroke="#757575" points="314.72,-41.54 324.41,-37.24 314.15,-34.57 314.72,-41.54"/>
</g>
<!-- app/api/health/route.ts -->
<g id="node5" class="node">
<title>app/api/health/route.ts</title>
<path fill="none" stroke="#cfffac" d="M186.96,-107.75C186.96,-107.75 53.29,-107.75 53.29,-107.75 49.33,-107.75 45.38,-103.79 45.38,-99.83 45.38,-99.83 45.38,-91.92 45.38,-91.92 45.38,-87.96 49.33,-84 53.29,-84 53.29,-84 186.96,-84 186.96,-84 190.92,-84 194.88,-87.96 194.88,-91.92 194.88,-91.92 194.88,-99.83 194.88,-99.83 194.88,-103.79 190.92,-107.75 186.96,-107.75"/>
<text text-anchor="middle" x="120.12" y="-90.45" font-family="Arial" font-size="14.00" fill="#cfffac">app/api/health/route.ts</text>
</g>
<!-- app/auth/error/page.tsx -->
<g id="node6" class="node">
<title>app/auth/error/page.tsx</title>
<path fill="none" stroke="#cfffac" d="M189.96,-149.75C189.96,-149.75 50.29,-149.75 50.29,-149.75 46.33,-149.75 42.38,-145.79 42.38,-141.83 42.38,-141.83 42.38,-133.92 42.38,-133.92 42.38,-129.96 46.33,-126 50.29,-126 50.29,-126 189.96,-126 189.96,-126 193.92,-126 197.88,-129.96 197.88,-133.92 197.88,-133.92 197.88,-141.83 197.88,-141.83 197.88,-145.79 193.92,-149.75 189.96,-149.75"/>
<text text-anchor="middle" x="120.12" y="-132.45" font-family="Arial" font-size="14.00" fill="#cfffac">app/auth/error/page.tsx</text>
</g>
<!-- app/auth/login/page.tsx -->
<g id="node7" class="node">
<title>app/auth/login/page.tsx</title>
<path fill="none" stroke="#cfffac" d="M189.96,-191.75C189.96,-191.75 50.29,-191.75 50.29,-191.75 46.33,-191.75 42.38,-187.79 42.38,-183.83 42.38,-183.83 42.38,-175.92 42.38,-175.92 42.38,-171.96 46.33,-168 50.29,-168 50.29,-168 189.96,-168 189.96,-168 193.92,-168 197.88,-171.96 197.88,-175.92 197.88,-175.92 197.88,-183.83 197.88,-183.83 197.88,-187.79 193.92,-191.75 189.96,-191.75"/>
<text text-anchor="middle" x="120.12" y="-174.45" font-family="Arial" font-size="14.00" fill="#cfffac">app/auth/login/page.tsx</text>
</g>
<!-- app/auth/logout/page.tsx -->
<g id="node8" class="node">
<title>app/auth/logout/page.tsx</title>
<path fill="none" stroke="#cfffac" d="M194.08,-233.75C194.08,-233.75 46.17,-233.75 46.17,-233.75 42.21,-233.75 38.25,-229.79 38.25,-225.83 38.25,-225.83 38.25,-217.92 38.25,-217.92 38.25,-213.96 42.21,-210 46.17,-210 46.17,-210 194.08,-210 194.08,-210 198.04,-210 202,-213.96 202,-217.92 202,-217.92 202,-225.83 202,-225.83 202,-229.79 198.04,-233.75 194.08,-233.75"/>
<text text-anchor="middle" x="120.12" y="-216.45" font-family="Arial" font-size="14.00" fill="#cfffac">app/auth/logout/page.tsx</text>
</g>
<!-- app/contact/page.tsx -->
<g id="node9" class="node">
<title>app/contact/page.tsx</title>
<path fill="none" stroke="#cfffac" d="M182.46,-275.75C182.46,-275.75 57.79,-275.75 57.79,-275.75 53.83,-275.75 49.88,-271.79 49.88,-267.83 49.88,-267.83 49.88,-259.92 49.88,-259.92 49.88,-255.96 53.83,-252 57.79,-252 57.79,-252 182.46,-252 182.46,-252 186.42,-252 190.38,-255.96 190.38,-259.92 190.38,-259.92 190.38,-267.83 190.38,-267.83 190.38,-271.79 186.42,-275.75 182.46,-275.75"/>
<text text-anchor="middle" x="120.12" y="-258.45" font-family="Arial" font-size="14.00" fill="#cfffac">app/contact/page.tsx</text>
</g>
<!-- app/layout.tsx -->
<g id="node10" class="node">
<title>app/layout.tsx</title>
<path fill="none" stroke="#c6c5fe" d="M161.83,-317.75C161.83,-317.75 78.42,-317.75 78.42,-317.75 74.46,-317.75 70.5,-313.79 70.5,-309.83 70.5,-309.83 70.5,-301.92 70.5,-301.92 70.5,-297.96 74.46,-294 78.42,-294 78.42,-294 161.83,-294 161.83,-294 165.79,-294 169.75,-297.96 169.75,-301.92 169.75,-301.92 169.75,-309.83 169.75,-309.83 169.75,-313.79 165.79,-317.75 161.83,-317.75"/>
<text text-anchor="middle" x="120.12" y="-300.45" font-family="Arial" font-size="14.00" fill="#c6c5fe">app/layout.tsx</text>
</g>
<!-- components/AuthProvider.tsx -->
<g id="node11" class="node">
<title>components/AuthProvider.tsx</title>
<path fill="none" stroke="#cfffac" d="M466.96,-338.75C466.96,-338.75 290.54,-338.75 290.54,-338.75 286.58,-338.75 282.62,-334.79 282.62,-330.83 282.62,-330.83 282.62,-322.92 282.62,-322.92 282.62,-318.96 286.58,-315 290.54,-315 290.54,-315 466.96,-315 466.96,-315 470.92,-315 474.88,-318.96 474.88,-322.92 474.88,-322.92 474.88,-330.83 474.88,-330.83 474.88,-334.79 470.92,-338.75 466.96,-338.75"/>
<text text-anchor="middle" x="378.75" y="-321.45" font-family="Arial" font-size="14.00" fill="#cfffac">components/AuthProvider.tsx</text>
</g>
<!-- app/layout.tsx&#45;&gt;components/AuthProvider.tsx -->
<g id="edge3" class="edge">
<title>app/layout.tsx&#45;&gt;components/AuthProvider.tsx</title>
<path fill="none" stroke="#757575" d="M170,-309.87C198.6,-312.22 235.9,-315.27 270.98,-318.14"/>
<polygon fill="#757575" stroke="#757575" points="270.51,-321.61 280.77,-318.94 271.09,-314.63 270.51,-321.61"/>
</g>
<!-- components/Navbar/Navbar.tsx -->
<g id="node12" class="node">
<title>components/Navbar/Navbar.tsx</title>
<path fill="none" stroke="#c6c5fe" d="M473.33,-296.75C473.33,-296.75 284.17,-296.75 284.17,-296.75 280.21,-296.75 276.25,-292.79 276.25,-288.83 276.25,-288.83 276.25,-280.92 276.25,-280.92 276.25,-276.96 280.21,-273 284.17,-273 284.17,-273 473.33,-273 473.33,-273 477.29,-273 481.25,-276.96 481.25,-280.92 481.25,-280.92 481.25,-288.83 481.25,-288.83 481.25,-292.79 477.29,-296.75 473.33,-296.75"/>
<text text-anchor="middle" x="378.75" y="-279.45" font-family="Arial" font-size="14.00" fill="#c6c5fe">components/Navbar/Navbar.tsx</text>
</g>
<!-- app/layout.tsx&#45;&gt;components/Navbar/Navbar.tsx -->
<g id="edge4" class="edge">
<title>app/layout.tsx&#45;&gt;components/Navbar/Navbar.tsx</title>
<path fill="none" stroke="#757575" d="M170,-301.88C196.91,-299.67 231.52,-296.84 264.73,-294.12"/>
<polygon fill="#757575" stroke="#757575" points="264.74,-297.63 274.42,-293.33 264.17,-290.66 264.74,-297.63"/>
</g>
<!-- components/Navbar/Navbar.module.css -->
<g id="node16" class="node">
<title>components/Navbar/Navbar.module.css</title>
<path fill="none" stroke="#cfffac" d="M766.08,-296.75C766.08,-296.75 525.17,-296.75 525.17,-296.75 521.21,-296.75 517.25,-292.79 517.25,-288.83 517.25,-288.83 517.25,-280.92 517.25,-280.92 517.25,-276.96 521.21,-273 525.17,-273 525.17,-273 766.08,-273 766.08,-273 770.04,-273 774,-276.96 774,-280.92 774,-280.92 774,-288.83 774,-288.83 774,-292.79 770.04,-296.75 766.08,-296.75"/>
<text text-anchor="middle" x="645.62" y="-279.45" font-family="Arial" font-size="14.00" fill="#cfffac">components/Navbar/Navbar.module.css</text>
</g>
<!-- components/Navbar/Navbar.tsx&#45;&gt;components/Navbar/Navbar.module.css -->
<g id="edge6" class="edge">
<title>components/Navbar/Navbar.tsx&#45;&gt;components/Navbar/Navbar.module.css</title>
<path fill="none" stroke="#757575" d="M481.4,-284.88C489.33,-284.88 497.42,-284.88 505.54,-284.88"/>
<polygon fill="#757575" stroke="#757575" points="505.52,-288.38 515.52,-284.88 505.52,-281.38 505.52,-288.38"/>
</g>
<!-- app/page.tsx -->
<g id="node13" class="node">
<title>app/page.tsx</title>
<path fill="none" stroke="#cfffac" d="M158.83,-359.75C158.83,-359.75 81.42,-359.75 81.42,-359.75 77.46,-359.75 73.5,-355.79 73.5,-351.83 73.5,-351.83 73.5,-343.92 73.5,-343.92 73.5,-339.96 77.46,-336 81.42,-336 81.42,-336 158.83,-336 158.83,-336 162.79,-336 166.75,-339.96 166.75,-343.92 166.75,-343.92 166.75,-351.83 166.75,-351.83 166.75,-355.79 162.79,-359.75 158.83,-359.75"/>
<text text-anchor="middle" x="120.12" y="-342.45" font-family="Arial" font-size="14.00" fill="#cfffac">app/page.tsx</text>
</g>
<!-- components/Button/Button.stories.tsx -->
<g id="node14" class="node">
<title>components/Button/Button.stories.tsx</title>
<path fill="none" stroke="#c6c5fe" d="M232.33,-401.75C232.33,-401.75 7.92,-401.75 7.92,-401.75 3.96,-401.75 0,-397.79 0,-393.83 0,-393.83 0,-385.92 0,-385.92 0,-381.96 3.96,-378 7.92,-378 7.92,-378 232.33,-378 232.33,-378 236.29,-378 240.25,-381.96 240.25,-385.92 240.25,-385.92 240.25,-393.83 240.25,-393.83 240.25,-397.79 236.29,-401.75 232.33,-401.75"/>
<text text-anchor="middle" x="120.12" y="-384.45" font-family="Arial" font-size="14.00" fill="#c6c5fe">components/Button/Button.stories.tsx</text>
</g>
<!-- components/Button/Button.tsx -->
<g id="node15" class="node">
<title>components/Button/Button.tsx</title>
<path fill="none" stroke="#cfffac" d="M469.21,-401.75C469.21,-401.75 288.29,-401.75 288.29,-401.75 284.33,-401.75 280.38,-397.79 280.38,-393.83 280.38,-393.83 280.38,-385.92 280.38,-385.92 280.38,-381.96 284.33,-378 288.29,-378 288.29,-378 469.21,-378 469.21,-378 473.17,-378 477.12,-381.96 477.12,-385.92 477.12,-385.92 477.12,-393.83 477.12,-393.83 477.12,-397.79 473.17,-401.75 469.21,-401.75"/>
<text text-anchor="middle" x="378.75" y="-384.45" font-family="Arial" font-size="14.00" fill="#cfffac">components/Button/Button.tsx</text>
</g>
<!-- components/Button/Button.stories.tsx&#45;&gt;components/Button/Button.tsx -->
<g id="edge5" class="edge">
<title>components/Button/Button.stories.tsx&#45;&gt;components/Button/Button.tsx</title>
<path fill="none" stroke="#757575" d="M240.42,-389.88C249.82,-389.88 259.28,-389.88 268.61,-389.88"/>
<polygon fill="#757575" stroke="#757575" points="268.39,-393.38 278.39,-389.88 268.39,-386.38 268.39,-393.38"/>
</g>
<!-- components/Tooltip/Tooltip.tsx -->
<g id="node17" class="node">
<title>components/Tooltip/Tooltip.tsx</title>
<path fill="none" stroke="#cfffac" d="M210.58,-443.75C210.58,-443.75 29.67,-443.75 29.67,-443.75 25.71,-443.75 21.75,-439.79 21.75,-435.83 21.75,-435.83 21.75,-427.92 21.75,-427.92 21.75,-423.96 25.71,-420 29.67,-420 29.67,-420 210.58,-420 210.58,-420 214.54,-420 218.5,-423.96 218.5,-427.92 218.5,-427.92 218.5,-435.83 218.5,-435.83 218.5,-439.79 214.54,-443.75 210.58,-443.75"/>
<text text-anchor="middle" x="120.12" y="-426.45" font-family="Arial" font-size="14.00" fill="#cfffac">components/Tooltip/Tooltip.tsx</text>
</g>
<!-- env.mjs -->
<g id="node18" class="node">
<title>env.mjs</title>
<path fill="none" stroke="#cfffac" d="M402.08,-485.75C402.08,-485.75 355.42,-485.75 355.42,-485.75 351.46,-485.75 347.5,-481.79 347.5,-477.83 347.5,-477.83 347.5,-469.92 347.5,-469.92 347.5,-465.96 351.46,-462 355.42,-462 355.42,-462 402.08,-462 402.08,-462 406.04,-462 410,-465.96 410,-469.92 410,-469.92 410,-477.83 410,-477.83 410,-481.79 406.04,-485.75 402.08,-485.75"/>
<text text-anchor="middle" x="378.75" y="-468.45" font-family="Arial" font-size="14.00" fill="#cfffac">env.mjs</text>
</g>
<!-- jest.config.js -->
<g id="node19" class="node">
<title>jest.config.js</title>
<path fill="none" stroke="#cfffac" d="M157.33,-527.75C157.33,-527.75 82.92,-527.75 82.92,-527.75 78.96,-527.75 75,-523.79 75,-519.83 75,-519.83 75,-511.92 75,-511.92 75,-507.96 78.96,-504 82.92,-504 82.92,-504 157.33,-504 157.33,-504 161.29,-504 165.25,-507.96 165.25,-511.92 165.25,-511.92 165.25,-519.83 165.25,-519.83 165.25,-523.79 161.29,-527.75 157.33,-527.75"/>
<text text-anchor="middle" x="120.12" y="-510.45" font-family="Arial" font-size="14.00" fill="#cfffac">jest.config.js</text>
</g>
<!-- jest.setup.js -->
<g id="node20" class="node">
<title>jest.setup.js</title>
<path fill="none" stroke="#cfffac" d="M155.83,-569.75C155.83,-569.75 84.42,-569.75 84.42,-569.75 80.46,-569.75 76.5,-565.79 76.5,-561.83 76.5,-561.83 76.5,-553.92 76.5,-553.92 76.5,-549.96 80.46,-546 84.42,-546 84.42,-546 155.83,-546 155.83,-546 159.79,-546 163.75,-549.96 163.75,-553.92 163.75,-553.92 163.75,-561.83 163.75,-561.83 163.75,-565.79 159.79,-569.75 155.83,-569.75"/>
<text text-anchor="middle" x="120.12" y="-552.45" font-family="Arial" font-size="14.00" fill="#cfffac">jest.setup.js</text>
</g>
<!-- lp&#45;items.tsx -->
<g id="node21" class="node">
<title>lp&#45;items.tsx</title>
<path fill="none" stroke="#cfffac" d="M154.71,-611.75C154.71,-611.75 85.54,-611.75 85.54,-611.75 81.58,-611.75 77.62,-607.79 77.62,-603.83 77.62,-603.83 77.62,-595.92 77.62,-595.92 77.62,-591.96 81.58,-588 85.54,-588 85.54,-588 154.71,-588 154.71,-588 158.67,-588 162.62,-591.96 162.62,-595.92 162.62,-595.92 162.62,-603.83 162.62,-603.83 162.62,-607.79 158.67,-611.75 154.71,-611.75"/>
<text text-anchor="middle" x="120.12" y="-594.45" font-family="Arial" font-size="14.00" fill="#cfffac">lp&#45;items.tsx</text>
</g>
<!-- next.config.ts -->
<g id="node22" class="node">
<title>next.config.ts</title>
<path fill="none" stroke="#c6c5fe" d="M159.96,-485.75C159.96,-485.75 80.29,-485.75 80.29,-485.75 76.33,-485.75 72.38,-481.79 72.38,-477.83 72.38,-477.83 72.38,-469.92 72.38,-469.92 72.38,-465.96 76.33,-462 80.29,-462 80.29,-462 159.96,-462 159.96,-462 163.92,-462 167.88,-465.96 167.88,-469.92 167.88,-469.92 167.88,-477.83 167.88,-477.83 167.88,-481.79 163.92,-485.75 159.96,-485.75"/>
<text text-anchor="middle" x="120.12" y="-468.45" font-family="Arial" font-size="14.00" fill="#c6c5fe">next.config.ts</text>
</g>
<!-- next.config.ts&#45;&gt;env.mjs -->
<g id="edge7" class="edge">
<title>next.config.ts&#45;&gt;env.mjs</title>
<path fill="none" stroke="#757575" d="M168.19,-473.88C216.11,-473.88 289.72,-473.88 335.73,-473.88"/>
<polygon fill="#757575" stroke="#757575" points="335.57,-477.38 345.57,-473.88 335.57,-470.38 335.57,-477.38"/>
</g>
<!-- report&#45;bundle&#45;size.js -->
<g id="node23" class="node">
<title>report&#45;bundle&#45;size.js</title>
<path fill="none" stroke="#cfffac" d="M181.33,-653.75C181.33,-653.75 58.92,-653.75 58.92,-653.75 54.96,-653.75 51,-649.79 51,-645.83 51,-645.83 51,-637.92 51,-637.92 51,-633.96 54.96,-630 58.92,-630 58.92,-630 181.33,-630 181.33,-630 185.29,-630 189.25,-633.96 189.25,-637.92 189.25,-637.92 189.25,-645.83 189.25,-645.83 189.25,-649.79 185.29,-653.75 181.33,-653.75"/>
<text text-anchor="middle" x="120.12" y="-636.45" font-family="Arial" font-size="14.00" fill="#cfffac">report&#45;bundle&#45;size.js</text>
</g>
<!-- styles/tailwind.css -->
<g id="node24" class="node">
<title>styles/tailwind.css</title>
<path fill="none" stroke="#cfffac" d="M173.83,-695.75C173.83,-695.75 66.42,-695.75 66.42,-695.75 62.46,-695.75 58.5,-691.79 58.5,-687.83 58.5,-687.83 58.5,-679.92 58.5,-679.92 58.5,-675.96 62.46,-672 66.42,-672 66.42,-672 173.83,-672 173.83,-672 177.79,-672 181.75,-675.96 181.75,-679.92 181.75,-679.92 181.75,-687.83 181.75,-687.83 181.75,-691.79 177.79,-695.75 173.83,-695.75"/>
<text text-anchor="middle" x="120.12" y="-678.45" font-family="Arial" font-size="14.00" fill="#cfffac">styles/tailwind.css</text>
</g>
</g>
</svg>
